
<global>
ampeg_release=2.50
xfin_hicc1=24
xfout_hicc1=127
xfout_locc1=127
</global>

<group>
ampeg_release=0.05
group_label=Sustain_0-45
lpc_hicc1=42
lpc_locc1=0

<region>
hikey=a3
hivel=127
lokey=g#3
lovel=1
lpc=vPbyQRgfXcJgR3tB+IOlQMm0IUFNjKG/KFugv51ANsBri4a/RhcNvhyauT0YaR2+fgTaPqNWL74wXhe+1sADPyO2xz6RQTw/tRUYv3dkfj7/R0W/L0jAvp5Y4b5aTIA/
lpc_rms=-40.16
pitch_keycenter=a3
sample=Alto_fall_PP_A3.opus
</region>

<region>
hikey=a4
hivel=127
lokey=g#4
lovel=1
lpc=YTvmQTg7WsJlXNlBgfcLwamsdUHjt/LASi7OQOodCsHb7ay+hyB0QKP7kz9CmLXADwF/QPbDz7+taZ6/YuHCQO0PgcA81Jc+96bovq7qAr1jf/Q9T4KhvQli/j8WQpC/
lpc_rms=-34.60
pitch_keycenter=a4
sample=Alto_fall_PP_A4.opus
</region>

<region>
hikey=a5
hivel=127
lokey=g#5
lovel=1
lpc=Qo6cQTDB8MHu4O1AwNwGwEgMH0EWaKHAr9CFQBIYtcDf+JhAxVXBv0rR2T8JqffAikj/QMDWeMAXV6s+QxoCQPycAT9RcQHAc30bQEQ1BL8kPdK/nfcVwDgksT/pI5o/
lpc_rms=-29.18
pitch_keycenter=a5
sample=Alto_fall_PP_A5.opus
</region>

<region>
hikey=b3
hivel=127
lokey=a#3
lovel=1
lpc=0qlKQg3cycIrsRVCcm0UQcfgk0FdWtTA5rl3wNEc28Dqdha+RmjUP7/8RD8g5J6/992JP5mPzz2qeYU/C5z+P6HtPMBnQjk/FNqPvRs1gb/wl9M/w/rvvnRxCMAcieI/
lpc_rms=-34.39
pitch_keycenter=b3
sample=Alto_fall_PP_B3.opus
</region>

<region>
hikey=b4
hivel=127
lokey=a#4
lovel=1
lpc=q5z/QQKkacKvNtZBYlddwZrr1EEt31XBu+YNQZTYRsFl0JxAd278v+K7hUD4pRzBY8ouQc3Rw8BkzZs/ohA7QDXCab8LD/0++rzcv+dZur7dUSC9rjXRPyRBdz+Iesi/
lpc_rms=-31.61
offset=7313
pitch_keycenter=b4
sample=Alto_fall_PP_B4.opus
</region>

<region>
hikey=b5
hivel=127
lokey=a#5
lovel=1
lpc=G4lWQThNncF68nFAnO6qPn9k4UBGUanAUJQIQMurx795UoS/29IYQB3dYb5uGq+/iup7QLTNHsCbRiTARwO+P8TPsz/U0Ia+OMdxv38AWEC1GTTAkHnmv5uRGb8tASBA
lpc_rms=-29.35
offset=15
pitch_keycenter=b5
sample=Alto_fall_PP_B5.opus
</region>

<region>
hikey=c#4
hivel=127
lokey=c4
lovel=1
lpc=FXGNQjvo+8IHIR9CmbU2QMUC6EFceybBpmokQIK/esC/RKTAkA2ZviIBXj1EJua/Cp3/P5kTFkBx6YbA5H6fQEMEVMD8oL5AkQi9wJuqBr+ucVc/A4OdvO867r9rBmlA
lpc_rms=-30.61
pitch_keycenter=c#4
sample=Alto_fall_PP_C#4.opus
</region>

<region>
hikey=c#5
hivel=127
lokey=c5
lovel=1
lpc=3IuOQUf1AsJs9X1BoQzxwHKGSUFaycPAty+2QK7qDsFfyaJASfoFwIdASUBAGKXA6tvUQEWqrsC0udM+IP4AQL02BsCQSN8/0wKZP5cbr7/9SHo/1qwov5+EK8ChcydA
lpc_rms=-35.22
offset=992
pitch_keycenter=c#5
sample=Alto_fall_PP_C#5.opus
</region>

<region>
hikey=c#6
hivel=127
lokey=c6
lovel=1
lpc=F5OnQaziysHVlgXAh7YNwOIzKEFlXuA/UC8evmOimcCHFCNA8ekQQD3a8UDKHRnBcU9/PzfcA8E5kME+aWYFQcOlUD/8Ovi+rXoYP8gTbMCdUJVAKoS0wLSMmD/YmeA/
lpc_rms=-24.79
offset=5
pitch_keycenter=C#6
sample=Alto_fall_PP_C#6.opus
</region>

<region>
hikey=d#4
hivel=127
lokey=d4
lovel=1
lpc=BbEpQp1FvMJXTmBCd2/YwCtTf0FNiGXBNMOrQKvQ6cAQ8whAxRZSQJHvCsBC27zAPMnqQOCY87/4YRbAZHveQMxhcMCssSE/z64SwHeFAL8DoWFAaLmIwDxnDUDrT8I+
lpc_rms=-31.97
pitch_keycenter=d#4
sample=Alto_fall_PP_D#4.opus
</region>

<region>
hikey=d#5
hivel=127
lokey=d5
lovel=1
lpc=w3e0QQIRG8I3FItBH38RwcVYjUGxTT3BnmO8QMOMnD/YT83Ac4WzQF7A6L/LJJnAK1PBQLVzpsBizkxAaQsSQEnH1T6I792/YDyPvgvTZT+zFmDAozQdQAIT1j60ahE/
lpc_rms=-31.67
offset=1765
pitch_keycenter=d#5
sample=Alto_fall_PP_D#5.opus
</region>

<region>
hikey=f4
hivel=127
lokey=e4
lovel=1
lpc=/L04QjU4usJ/Lj1CQ5FWweDe6UHWPpXBRzTbQMyj2T+TeQnBNSKpQOjLCcBB2QHBFEFHQRBazMAK9P6/yKu9QBLeaT+Mf26/5DPhvzQVB8DN+68/YjaNP0B1LsAZfBRA
lpc_rms=-31.64
pitch_keycenter=f4
sample=Alto_fall_PP_F4.opus
</region>

<region>
hikey=f5
hivel=127
lokey=e5
lovel=1
lpc=Qb1aQhCWu8JCxQBCIp6DwIlZ8kFRq4TBOkVKwIXbKkDqaJXAIGkuQV1kKr+AILvBv+jGQa0mI8H12z9Anq9kQHcqfEBZ4T/AvJyjwMVn1sBq+ds/cSayQLTQE0HfGRTB
lpc_rms=-21.22
pitch_keycenter=f5
sample=Alto_fall_PP_F5.opus
</region>

<region>
hivel=127
key=g3
lovel=1
lpc=DsS0QiAGBsNOST9BaHxXQOVk4UHYvqxAdY9rQBxPCMCcjeG/f+43wJaky797uwzAMx+cvxQhA76noye/1XUXQKe+Ez+EuC1AL2KpP2bD2D9A++m/kACRwGsXbMBKe65A
lpc_rms=-32.62
sample=Alto_fall_PP_G3.opus
</region>

<region>
hikey=g4
hivel=127
lokey=f#4
lovel=1
lpc=xVRyQt0C6MKjdVRC3kOJwc6vRkLnfPHBE+H5QDGWgcAWQGrBPX5YQWLshz+7GajAWVnZQO+XKMHjuYVA6eSmQO2Pk8CTuFJAlmFBQIjEuMBGoFu+ShQRQH9IgcC2q4FA
lpc_rms=-29.71
offset=570
pitch_keycenter=g4
sample=Alto_fall_PP_G4.opus
</region>

<region>
hikey=g5
hivel=127
lokey=f#5
lovel=1
lpc=7M7NQZ8LQsLxyr5BO7MKwcv1n0Ejt2LBA/TfQC5WtcCwUybAxh+9QIRUXL/i70nAFhZJQO7Q6r/hGFM/c7PQQMgINcFyPmlAG3GYvAqtjUBqOj7AcGckQCuhncCy2AVA
lpc_rms=-25.55
offset=1177
pitch_keycenter=g5
sample=Alto_fall_PP_G5.opus
</region>
</group>

<group>
ampeg_release=0.05
group_label=Sustain_46-90
lpc_hicc1=84
lpc_locc1=43

<region>
hikey=a3
hivel=127
lokey=g#3
lovel=1
lpc=7pwgQnyUt8Ji1oBCSSu5weCh6EFObLrBxWw5QRezUsEojuhAIYlpQHU6Bb77M1zBxEqIQUH7XsHQA75Am1cDQUGVBcEPinM/V4/hP5lFIsCarGQ/YMX4v6MHgkCh09a/
lpc_rms=-29.05
pitch_keycenter=a3
sample=Alto_fall_MF_A3.opus
</region>

<region>
hikey=a4
hivel=127
lokey=g#4
lovel=1
lpc=YPISQrBwmcIBc0RClFGuwT9K4EHZGrjBt9mdQYNZFcFUl23BHoGGQYZn+78mNA/B31+NQayVh8EtWBxBk4ZJwNoJQL/yYw6/ma6Cv9KjCkGg4CvB+BoGQUkVJsEY2tJA
lpc_rms=-23.45
offset=5616
pitch_keycenter=a4
sample=Alto_fall_MF_A4.opus
</region>

<region>
hikey=a5
hivel=127
lokey=g#5
lovel=1
lpc=bOhKQV65r8GcZThBOwWDwEI6pkCrVKbAfESFQNy4F785mzHAOj2FQIQ8ScBlx/O+jf1wQMRQrb+Su8G/yS7MP/37MsAYtTlA8H4kvm0+m73BHe+/xMU5QO2UOMCpJZc/
lpc_rms=-22.79
offset=5292
pitch_keycenter=a5
sample=Alto_fall_MF_A5.opus
</region>

<region>
hikey=b3
hivel=127
lokey=a#3
lovel=1
lpc=OLwpQi8JycICz5BCUQ3AwX4HAkLF6PLBnZiDQSaoLcGWJTbBb/mQQZSfsUDlBZjBpVSPQdPWk8FP+DBBnfVMQDuoocDr7xpARkGJwAcXNEDvwOm+VC2Av+7B6j80wgq/
lpc_rms=-27.01
offset=4363
pitch_keycenter=b3
sample=Alto_fall_MF_B3.opus
</region>

<region>
hikey=b4
hivel=127
lokey=a#4
lovel=1
lpc=LOQ5QrtL3MLSAq9Cix4kwumMOUJWPSTCpWSrQc6ntcFqUrpB4Y3iwJTrkz0eXlPBRiiYQQp2gsGz3hRB6/LtQBYne8GfglVB480Qwah4WUDXXsi+X4WrQEtxFMHAVZZA
lpc_rms=-20.42
offset=5431
pitch_keycenter=b4
sample=Alto_fall_MF_B4.opus
</region>

<region>
hikey=b5
hivel=127
lokey=a#5
lovel=1
lpc=4x3SQZW/KcLpS4pBZPSowOUGU0FHoU/BpaBOQZD0sMDjLBLBH9QEQU867j+mCzfAOcOkQLq5079nieXAiVqIQNpBc792up9ASX3av+byQEBpZyvB7AchQWEkJsE2FNdA
lpc_rms=-18.23
offset=696
pitch_keycenter=b5
sample=Alto_fall_MF_B5.opus
</region>

<region>
hikey=c#4
hivel=127
lokey=c4
lovel=1
lpc=sAM1QoLk08J95o5CZNmIwSHD8UEm0AfCHdWVQY/DX8Fhtf8/CZHtQD+q0sBI+v6/Ech+QWSwWcHPoo2+WvRMQAzNU8CTBsVAXi20vyz9Xb/0FbTAE+MTQWjnBMFxJnZA
lpc_rms=-25.77
offset=1091
pitch_keycenter=c#4
sample=Alto_fall_MF_C#4.opus
</region>

<region>
hikey=c#5
hivel=127
lokey=c5
lovel=1
lpc=/wcdQXkqhsGiBtRAlgTXv/2JtECwF5zAAs2JQD44j8BMW9c/CJtUPy9vPD9DaVXARVY6QPIH0L8s5ge+DfL1Pxzo5r8RWPs+7FZaP/mFyzsKgIu+iEsbP+hnH8By2N8/
lpc_rms=-30.73
offset=669
pitch_keycenter=c#5
sample=Alto_fall_MF_C#5.opus
</region>

<region>
hikey=c#6
hivel=127
lokey=c6
lovel=1
lpc=XLRyQXSrkMGcxK+/N2SAP1ndtkCA8IjAF7+cQIb7xb+8uK6/no0/QD0VLEDRLHXA38/Zv6m9OT5tVpLAjXHXQBUX474/3Za+r/J3PyLYhj9rYUHAUE9jwNM7o0DMMQW/
lpc_rms=-23.59
pitch_keycenter=C#6
sample=Alto_fall_MF_C#6.opus
</region>

<region>
hikey=d#4
hivel=127
lokey=d4
lovel=1
lpc=Zqz2QQa1lMI7d2tCFYPMwU4f10EM4MHBt/OEQYfzkMFjpFdB5H+LwLm6lEB5EGjBDAyTQWp0XsH9vrJAKKQ6QLuUVMAHBy5ArwZBwJtS5L5CWYNAgI/cwDWLoUAWimO/
lpc_rms=-26.56
offset=3164
pitch_keycenter=d#4
sample=Alto_fall_MF_D#4.opus
</region>

<region>
hikey=d#5
hivel=127
lokey=d5
lovel=1
lpc=b5CGQTFm38EbMypBL1cKwOyr4kC2vIvAxvmaQIqE2sDufEtAlP53v/NMrUDnWw3B/wn9QCCWyMCy0e0/TePvP0o2Zj+EuWDAqlvRQKiNLsA5rRjAgk28v7xBoz+7xdA/
lpc_rms=-24.42
offset=4791
pitch_keycenter=d#5
sample=Alto_fall_MF_D#5.opus
</region>

<region>
hikey=f4
hivel=127
lokey=e4
lovel=1
lpc=FlZlQrqKC8Psq9dCyIQhwmIyQUIeV0PClwPjQX+F2MHFfJRBNm8EwPDsmT8c0XDBb16uQaunXsFNuDlA0zA+QcG3rsFt9oJBh6+TwOHYUcDBHKZAHW7mPjU0w8AAmk1A
lpc_rms=-20.89
offset=1390
pitch_keycenter=f4
sample=Alto_fall_MF_F4.opus
</region>

<region>
hikey=f5
hivel=127
lokey=e5
lovel=1
lpc=r2wfQozJbcLjL1RBin7ZwO+C8UEDz5fBPLUyQb6j+cAXlCPAcRfFP5vx+kAYBEzBg6sZQU47vMAc0YA/ji8IQVuSwz9G7qDAEUDav6gu4cCTuxk/GI0DQYThmEAeVtnA
lpc_rms=-17.38
offset=1268
pitch_keycenter=f5
sample=Alto_fall_MF_F5.opus
</region>

<region>
hivel=127
key=g3
lovel=1
lpc=J/wOQgmAqMKerohC90IOwuy5/EFHab/BJn6RQdq6L8FONTrBUkTCQUNhd8EyIo1A856FQHwzCcHBzoC+TCIKQd2WfsCQfp+/wCgCQKZMwr98fWbA3OO3QJJxr7+iu/u+
lpc_rms=-28.52
sample=Alto_fall_MF_G3.opus
</region>

<region>
hikey=g4
hivel=127
lokey=f#4
lovel=1
lpc=RBY+QgYD3sJAS6tC8/4bwjNuMULpNiXCgLXFQQObacEh/gDBgkzgQQvck8GYJu49yFaoQNeKE8EOJNlAAfFPQIhjwMDVL39AmY2XPvmQlD8RA9bA2jM9Qe15d8FEtf9A
lpc_rms=-22.38
offset=975
pitch_keycenter=g4
sample=Alto_fall_MF_G4.opus
</region>

<region>
hikey=g5
hivel=127
lokey=f#5
lovel=1
lpc=/f1MQRrepMFDPedA1MEKwBERDEHyFszAmEn1P+KVUz/shanA8Q/XQIRBasBRors9/42pP3ueV78Btf09xZQuQFhcBsAN+ibA/8YJQGvSqj/+OxTAHFY3QAqWEL/PcaK/
lpc_rms=-27.01
offset=166
pitch_keycenter=g5
sample=Alto_fall_MF_G5.opus
</region>
</group>

<group>
ampeg_release=0.05
group_label=Sustain_91-127
lpc_hicc1=127
lpc_locc1=85

<region>
hikey=a3
hivel=127
lokey=g#3
lovel=1
lpc=FUfBQdKITsIZSQ5CYfGLwVuQxUGF5LXB+HM7QfErkcABDcq++zVeQPI4vD89hRrBm/I8QS1r/8AsbNs/cGy+Pzemzb9l2DtAv51VwJZJpUDw7LTAjlBpP6uNwz8BwWW+
lpc_rms=-24.23
offset=996
pitch_keycenter=a3
sample=Alto_fall_FF_A3.opus
</region>

<region>
hikey=a4
hivel=127
lokey=g#4
lovel=1
lpc=Gq+bQXijJsIu1t5B9egewRQOXkEjhnXBQToGQWSprcC9efVA/OmcwDrJg0Atwy/BKsNOQfoeG8EEbspA3cEnv+cWgMCyodo/IGiCQIKdWL8Nn43AC9DxP0Ffa79wG7E/
lpc_rms=-22.53
offset=1839
pitch_keycenter=a4
sample=Alto_fall_FF_A4.opus
</region>

<region>
hikey=a5
hivel=127
lokey=g#5
lovel=1
lpc=eT6DQTiu1MESFxxBQTd6PyOoMEBWyxfAbd0vP407j7+aZkNATmG/v5GcjT+QvdHAj5MCQeWsc8DbJ1g/WLRJPyesCMBd101Ak8VQPxywX8DWzyg/AhTxPq29wzzMiMy+
lpc_rms=-17.75
offset=187
pitch_keycenter=a5
sample=Alto_fall_FF_A5.opus
</region>

<region>
hikey=b3
hivel=127
lokey=a#3
lovel=1
lpc=D+bvQSbdh8KiYEFCftqjwdQN7UFo7evBYGqTQethhsGpNWZBrw/7wD0ZAEGZy4PBwzGiQW2QasH3VtFAqCWJPyl1RMCGjDK/ooWvP3tGRUCIzsLATe+sQO+wd8DqDu0/
lpc_rms=-24.20
offset=1489
pitch_keycenter=b3
sample=Alto_fall_FF_B3.opus
</region>

<region>
hikey=b4
hivel=127
lokey=a#4
lovel=1
lpc=VhrfQfOea8J2OA9CLIxXwRcm0kEi+LnBAYFjQY3OUsE25sY/F5wHQfwMusD5aMa/sb4/QCPWjD8G5yjArswBQX6iK8FQL4pAMWisv2FNU0DPe/LAqik6QUmUE8GZsFxA
lpc_rms=-18.80
offset=4045
pitch_keycenter=b4
sample=Alto_fall_FF_B4.opus
</region>

<region>
hikey=b5
hivel=127
lokey=a#5
lovel=1
lpc=plNiQXIFtMHDNCRBRiSNwHIqw0DLID7A8aENQHtAH8AN/3i/Y+SHQGIuw7/8yRPAnCp6QAFMJsCLR1g/4bbgPw2YhMCc7DVAjMDdPxXfW7+VnELAcvdsQGdjtMCtYYFA
lpc_rms=-19.70
offset=393
pitch_keycenter=b5
sample=Alto_fall_FF_B5.opus
</region>

<region>
hikey=c#4
hivel=127
lokey=c4
lovel=1
lpc=mb+8QdPqS8J5PvFBS3KzwB27hEG/SKfB7U5IQT4xQsHgsExBfSzJwIFkgUBVozvBCaJrQWw9GsGbK3dAbvKIPyzSKMBSy4I/3M5iP7CL5D7AoAvAWcGKPzrxv78gjac/
lpc_rms=-23.52
offset=1757
pitch_keycenter=c#4
sample=Alto_fall_FF_C#4.opus
</region>

<region>
hikey=c#5
hivel=127
lokey=c5
lovel=1
lpc=VVU6QVgXnsFP9fxAM2eBwHpXDUHQHabAjmmZQJ2hfcBnfbm/glMvQK2Zjr/wMHw+OlBNPwz57r+RGsW+MfwfQNbE9b+HWhZAOiGiv2KQ1z/KCUrAaIYqQKK3W8A8wR5A
lpc_rms=-26.28
offset=539
pitch_keycenter=c#5
sample=Alto_fall_FF_C#5.opus
</region>

<region>
hikey=c#6
hivel=127
lokey=c6
lovel=1
lpc=nHF2QbXXlsHbb50/rx7tP+gLfECpvvu/S8V0PxO4s746tTLAedLCQEcvrL4SVo3AwAeFQNqHQr4xOZnAmy6+QJzrR7t/mAHAQ36QP5Rf6z85FK3AYXMDv4RzkEB/j0Y+
lpc_rms=-15.97
offset=2964
pitch_keycenter=C#6
sample=Alto_fall_FF_C#6.opus
</region>

<region>
hikey=d#4
hivel=127
lokey=d4
lovel=1
lpc=2RLAQaRlVMI7QQVCnLD1wCyBj0G/1aLBJAnmQNo6rb9tB9A/idz2v/bxIkB0rOXAJL88QRKYFsF5mUBA0M5yQJZ56MD5cqZAFySsv3fIEz8nGLy/A0mSP0Jjjr9FKV4/
lpc_rms=-22.23
offset=931
pitch_keycenter=d#4
sample=Alto_fall_FF_D#4.opus
</region>

<region>
hikey=d#5
hivel=127
lokey=d5
lovel=1
lpc=NK2HQXAM4MEsuRdBZbQavi+dAUFgrqHAIpaRP45JTMAlGdo/fdMxQJIcTT+gV+jA+FHgQEQmi8D0qrA+Kx2lQA3mnMCZvq8/ivEuQLjv8T3NZhTATf4awAnekT/u1BJA
lpc_rms=-21.51
offset=835
pitch_keycenter=d#5
sample=Alto_fall_FF_D#5.opus
</region>

<region>
hikey=f4
hivel=127
lokey=e4
lovel=1
lpc=TKILQriLkMIy0CpC0L+JwerEGEK5lB/CT3ntQSSw48HqZoVBwWYCwZedYUHIhp7Bn2mYQYW6Z8E90t9AIey9QLHxRcFsR7JAGDOjP36SVUDuhyDBPvkOQZFwicC6RWM/
lpc_rms=-16.92
offset=1469
pitch_keycenter=f4
sample=Alto_fall_FF_F4.opus
</region>

<region>
hikey=f5
hivel=127
lokey=e5
lovel=1
lpc=H7IWQkJ8iMLfI/NBAepawAHKl0EpsFzB7EgeQGLkvcAPLdNApR6yP8nIiL7kjkrBNT2DQX6Z0sB8/VY/ajwCQHfZgcBMVI1ALU6UP+m0zsBy4BRAomHHP6jek0DcsHPA
lpc_rms=-13.27
offset=1251
pitch_keycenter=f5
sample=Alto_fall_FF_F5.opus
</region>

<region>
hivel=127
key=g3
lovel=1
lpc=hjDVQb8vecJ4DE1C6z7wwaF86EHzjabBaj0sQZnAEr923ynBtmREQff7xsCEpCHARvMKQZSpHcEKkcBA/8DOv/kOXj/yoG+/X8z5Pon+oT8DDXrAmL2WQDA5NMAZZTE/
lpc_rms=-24.41
sample=Alto_fall_FF_G3.opus
</region>

<region>
hikey=g4
hivel=127
lokey=f#4
lovel=1
lpc=K/SkQfQcOcKEMgNCwO1DwRF5jEEMRqHBsLqBQeYEgsFUgilBMKMVwBsNgEDpwD3BedVpQUSmN8EKutlANLeIP9wNmsA/RaS/PcI0QFe2Qz9KSLi/4RShQJTA4MBMwkBA
lpc_rms=-22.20
offset=600
pitch_keycenter=g4
sample=Alto_fall_FF_G4.opus
</region>

<region>
hikey=g5
hivel=127
lokey=f#5
lovel=1
lpc=WUJdQS73usGlZxRBAf88PhjDpEDLyaPArpcvQAqPP8BJgh1A8twAwJ0ig0DfacHAD17BQHpdg8BKaWw/3d02QF1tO8ByuPG+CApTQCYgQ8DSDvY/xKnMvw/eZEDpPi7A
lpc_rms=-19.58
offset=1042
pitch_keycenter=g5
sample=Alto_fall_FF_G5.opus
</region>
</group>

<group>
ampeg_attack=0.02
ampeg_release=2.5
group_label=Release_0-45
lpc_hicc1=42
lpc_locc1=0
trigger=release

<region>
hikey=a3
hivel=127
lokey=g#3
lovel=1
lpc=vPbyQRgfXcJgR3tB+IOlQMm0IUFNjKG/KFugv51ANsBri4a/RhcNvhyauT0YaR2+fgTaPqNWL74wXhe+1sADPyO2xz6RQTw/tRUYv3dkfj7/R0W/L0jAvp5Y4b5aTIA/
lpc_rms=-40.16
offset=105600
pitch_keycenter=a3
sample=Alto_fall_PP_A3.opus
</region>

<region>
hikey=a4
hivel=127
lokey=g#4
lovel=1
lpc=YTvmQTg7WsJlXNlBgfcLwamsdUHjt/LASi7OQOodCsHb7ay+hyB0QKP7kz9CmLXADwF/QPbDz7+taZ6/YuHCQO0PgcA81Jc+96bovq7qAr1jf/Q9T4KhvQli/j8WQpC/
lpc_rms=-34.60
offset=105600
pitch_keycenter=a4
sample=Alto_fall_PP_A4.opus
</region>

<region>
hikey=a5
hivel=127
lokey=g#5
lovel=1
lpc=Qo6cQTDB8MHu4O1AwNwGwEgMH0EWaKHAr9CFQBIYtcDf+JhAxVXBv0rR2T8JqffAikj/QMDWeMAXV6s+QxoCQPycAT9RcQHAc30bQEQ1BL8kPdK/nfcVwDgksT/pI5o/
lpc_rms=-29.18
offset=105600
pitch_keycenter=a5
sample=Alto_fall_PP_A5.opus
</region>

<region>
hikey=b3
hivel=127
lokey=a#3
lovel=1
lpc=0qlKQg3cycIrsRVCcm0UQcfgk0FdWtTA5rl3wNEc28Dqdha+RmjUP7/8RD8g5J6/992JP5mPzz2qeYU/C5z+P6HtPMBnQjk/FNqPvRs1gb/wl9M/w/rvvnRxCMAcieI/
lpc_rms=-34.39
offset=105600
pitch_keycenter=b3
sample=Alto_fall_PP_B3.opus
</region>

<region>
hikey=b4
hivel=127
lokey=a#4
lovel=1
lpc=q5z/QQKkacKvNtZBYlddwZrr1EEt31XBu+YNQZTYRsFl0JxAd278v+K7hUD4pRzBY8ouQc3Rw8BkzZs/ohA7QDXCab8LD/0++rzcv+dZur7dUSC9rjXRPyRBdz+Iesi/
lpc_rms=-31.61
offset=105600
pitch_keycenter=b4
sample=Alto_fall_PP_B4.opus
</region>

<region>
hikey=b5
hivel=127
lokey=a#5
lovel=1
lpc=G4lWQThNncF68nFAnO6qPn9k4UBGUanAUJQIQMurx795UoS/29IYQB3dYb5uGq+/iup7QLTNHsCbRiTARwO+P8TPsz/U0Ia+OMdxv38AWEC1GTTAkHnmv5uRGb8tASBA
lpc_rms=-29.35
offset=105600
pitch_keycenter=b5
sample=Alto_fall_PP_B5.opus
</region>

<region>
hikey=c#4
hivel=127
lokey=c4
lovel=1
lpc=FXGNQjvo+8IHIR9CmbU2QMUC6EFceybBpmokQIK/esC/RKTAkA2ZviIBXj1EJua/Cp3/P5kTFkBx6YbA5H6fQEMEVMD8oL5AkQi9wJuqBr+ucVc/A4OdvO867r9rBmlA
lpc_rms=-30.61
offset=105600
pitch_keycenter=c#4
sample=Alto_fall_PP_C#4.opus
</region>

<region>
hikey=c#5
hivel=127
lokey=c5
lovel=1
lpc=3IuOQUf1AsJs9X1BoQzxwHKGSUFaycPAty+2QK7qDsFfyaJASfoFwIdASUBAGKXA6tvUQEWqrsC0udM+IP4AQL02BsCQSN8/0wKZP5cbr7/9SHo/1qwov5+EK8ChcydA
lpc_rms=-35.22
offset=105600
pitch_keycenter=c#5
sample=Alto_fall_PP_C#5.opus
</region>

<region>
hikey=c#6
hivel=127
lokey=c6
lovel=1
lpc=F5OnQaziysHVlgXAh7YNwOIzKEFlXuA/UC8evmOimcCHFCNA8ekQQD3a8UDKHRnBcU9/PzfcA8E5kME+aWYFQcOlUD/8Ovi+rXoYP8gTbMCdUJVAKoS0wLSMmD/YmeA/
lpc_rms=-24.79
offset=105600
pitch_keycenter=C#6
sample=Alto_fall_PP_C#6.opus
</region>

<region>
hikey=d#4
hivel=127
lokey=d4
lovel=1
lpc=BbEpQp1FvMJXTmBCd2/YwCtTf0FNiGXBNMOrQKvQ6cAQ8whAxRZSQJHvCsBC27zAPMnqQOCY87/4YRbAZHveQMxhcMCssSE/z64SwHeFAL8DoWFAaLmIwDxnDUDrT8I+
lpc_rms=-31.97
offset=105600
pitch_keycenter=d#4
sample=Alto_fall_PP_D#4.opus
</region>

<region>
hikey=d#5
hivel=127
lokey=d5
lovel=1
lpc=w3e0QQIRG8I3FItBH38RwcVYjUGxTT3BnmO8QMOMnD/YT83Ac4WzQF7A6L/LJJnAK1PBQLVzpsBizkxAaQsSQEnH1T6I792/YDyPvgvTZT+zFmDAozQdQAIT1j60ahE/
lpc_rms=-31.67
offset=105600
pitch_keycenter=d#5
sample=Alto_fall_PP_D#5.opus
</region>

<region>
hikey=f4
hivel=127
lokey=e4
lovel=1
lpc=/L04QjU4usJ/Lj1CQ5FWweDe6UHWPpXBRzTbQMyj2T+TeQnBNSKpQOjLCcBB2QHBFEFHQRBazMAK9P6/yKu9QBLeaT+Mf26/5DPhvzQVB8DN+68/YjaNP0B1LsAZfBRA
lpc_rms=-31.64
offset=105600
pitch_keycenter=f4
sample=Alto_fall_PP_F4.opus
</region>

<region>
hikey=f5
hivel=127
lokey=e5
lovel=1
lpc=Qb1aQhCWu8JCxQBCIp6DwIlZ8kFRq4TBOkVKwIXbKkDqaJXAIGkuQV1kKr+AILvBv+jGQa0mI8H12z9Anq9kQHcqfEBZ4T/AvJyjwMVn1sBq+ds/cSayQLTQE0HfGRTB
lpc_rms=-21.22
offset=105600
pitch_keycenter=f5
sample=Alto_fall_PP_F5.opus
</region>

<region>
hivel=127
key=g3
lovel=1
lpc=DsS0QiAGBsNOST9BaHxXQOVk4UHYvqxAdY9rQBxPCMCcjeG/f+43wJaky797uwzAMx+cvxQhA76noye/1XUXQKe+Ez+EuC1AL2KpP2bD2D9A++m/kACRwGsXbMBKe65A
lpc_rms=-32.62
offset=105600
sample=Alto_fall_PP_G3.opus
</region>

<region>
hikey=g4
hivel=127
lokey=f#4
lovel=1
lpc=xVRyQt0C6MKjdVRC3kOJwc6vRkLnfPHBE+H5QDGWgcAWQGrBPX5YQWLshz+7GajAWVnZQO+XKMHjuYVA6eSmQO2Pk8CTuFJAlmFBQIjEuMBGoFu+ShQRQH9IgcC2q4FA
lpc_rms=-29.71
offset=105600
pitch_keycenter=g4
sample=Alto_fall_PP_G4.opus
</region>

<region>
hikey=g5
hivel=127
lokey=f#5
lovel=1
lpc=7M7NQZ8LQsLxyr5BO7MKwcv1n0Ejt2LBA/TfQC5WtcCwUybAxh+9QIRUXL/i70nAFhZJQO7Q6r/hGFM/c7PQQMgINcFyPmlAG3GYvAqtjUBqOj7AcGckQCuhncCy2AVA
lpc_rms=-25.55
offset=105600
pitch_keycenter=g5
sample=Alto_fall_PP_G5.opus
</region>
</group>

<group>
ampeg_attack=0.02
ampeg_release=2.5
group_label=Release_46-90
lpc_hicc1=84
lpc_locc1=43
trigger=release

<region>
hikey=a3
hivel=127
lokey=g#3
lovel=1
lpc=7pwgQnyUt8Ji1oBCSSu5weCh6EFObLrBxWw5QRezUsEojuhAIYlpQHU6Bb77M1zBxEqIQUH7XsHQA75Am1cDQUGVBcEPinM/V4/hP5lFIsCarGQ/YMX4v6MHgkCh09a/
lpc_rms=-29.05
offset=105600
pitch_keycenter=a3
sample=Alto_fall_MF_A3.opus
</region>

<region>
hikey=a4
hivel=127
lokey=g#4
lovel=1
lpc=YPISQrBwmcIBc0RClFGuwT9K4EHZGrjBt9mdQYNZFcFUl23BHoGGQYZn+78mNA/B31+NQayVh8EtWBxBk4ZJwNoJQL/yYw6/ma6Cv9KjCkGg4CvB+BoGQUkVJsEY2tJA
lpc_rms=-23.45
offset=105600
pitch_keycenter=a4
sample=Alto_fall_MF_A4.opus
</region>

<region>
hikey=a5
hivel=127
lokey=g#5
lovel=1
lpc=bOhKQV65r8GcZThBOwWDwEI6pkCrVKbAfESFQNy4F785mzHAOj2FQIQ8ScBlx/O+jf1wQMRQrb+Su8G/yS7MP/37MsAYtTlA8H4kvm0+m73BHe+/xMU5QO2UOMCpJZc/
lpc_rms=-22.79
offset=105600
pitch_keycenter=a5
sample=Alto_fall_MF_A5.opus
</region>

<region>
hikey=b3
hivel=127
lokey=a#3
lovel=1
lpc=OLwpQi8JycICz5BCUQ3AwX4HAkLF6PLBnZiDQSaoLcGWJTbBb/mQQZSfsUDlBZjBpVSPQdPWk8FP+DBBnfVMQDuoocDr7xpARkGJwAcXNEDvwOm+VC2Av+7B6j80wgq/
lpc_rms=-27.01
offset=105600
pitch_keycenter=b3
sample=Alto_fall_MF_B3.opus
</region>

<region>
hikey=b4
hivel=127
lokey=a#4
lovel=1
lpc=LOQ5QrtL3MLSAq9Cix4kwumMOUJWPSTCpWSrQc6ntcFqUrpB4Y3iwJTrkz0eXlPBRiiYQQp2gsGz3hRB6/LtQBYne8GfglVB480Qwah4WUDXXsi+X4WrQEtxFMHAVZZA
lpc_rms=-20.42
offset=105600
pitch_keycenter=b4
sample=Alto_fall_MF_B4.opus
</region>

<region>
hikey=b5
hivel=127
lokey=a#5
lovel=1
lpc=4x3SQZW/KcLpS4pBZPSowOUGU0FHoU/BpaBOQZD0sMDjLBLBH9QEQU867j+mCzfAOcOkQLq5079nieXAiVqIQNpBc792up9ASX3av+byQEBpZyvB7AchQWEkJsE2FNdA
lpc_rms=-18.23
offset=105600
pitch_keycenter=b5
sample=Alto_fall_MF_B5.opus
</region>

<region>
hikey=c#4
hivel=127
lokey=c4
lovel=1
lpc=sAM1QoLk08J95o5CZNmIwSHD8UEm0AfCHdWVQY/DX8Fhtf8/CZHtQD+q0sBI+v6/Ech+QWSwWcHPoo2+WvRMQAzNU8CTBsVAXi20vyz9Xb/0FbTAE+MTQWjnBMFxJnZA
lpc_rms=-25.77
offset=105600
pitch_keycenter=c#4
sample=Alto_fall_MF_C#4.opus
</region>

<region>
hikey=c#5
hivel=127
lokey=c5
lovel=1
lpc=/wcdQXkqhsGiBtRAlgTXv/2JtECwF5zAAs2JQD44j8BMW9c/CJtUPy9vPD9DaVXARVY6QPIH0L8s5ge+DfL1Pxzo5r8RWPs+7FZaP/mFyzsKgIu+iEsbP+hnH8By2N8/
lpc_rms=-30.73
offset=105600
pitch_keycenter=c#5
sample=Alto_fall_MF_C#5.opus
</region>

<region>
hikey=c#6
hivel=127
lokey=c6
lovel=1
lpc=XLRyQXSrkMGcxK+/N2SAP1ndtkCA8IjAF7+cQIb7xb+8uK6/no0/QD0VLEDRLHXA38/Zv6m9OT5tVpLAjXHXQBUX474/3Za+r/J3PyLYhj9rYUHAUE9jwNM7o0DMMQW/
lpc_rms=-23.59
offset=105600
pitch_keycenter=C#6
sample=Alto_fall_MF_C#6.opus
</region>

<region>
hikey=d#4
hivel=127
lokey=d4
lovel=1
lpc=Zqz2QQa1lMI7d2tCFYPMwU4f10EM4MHBt/OEQYfzkMFjpFdB5H+LwLm6lEB5EGjBDAyTQWp0XsH9vrJAKKQ6QLuUVMAHBy5ArwZBwJtS5L5CWYNAgI/cwDWLoUAWimO/
lpc_rms=-26.56
offset=105600
pitch_keycenter=d#4
sample=Alto_fall_MF_D#4.opus
</region>

<region>
hikey=d#5
hivel=127
lokey=d5
lovel=1
lpc=b5CGQTFm38EbMypBL1cKwOyr4kC2vIvAxvmaQIqE2sDufEtAlP53v/NMrUDnWw3B/wn9QCCWyMCy0e0/TePvP0o2Zj+EuWDAqlvRQKiNLsA5rRjAgk28v7xBoz+7xdA/
lpc_rms=-24.42
offset=105600
pitch_keycenter=d#5
sample=Alto_fall_MF_D#5.opus
</region>

<region>
hikey=f4
hivel=127
lokey=e4
lovel=1
lpc=FlZlQrqKC8Psq9dCyIQhwmIyQUIeV0PClwPjQX+F2MHFfJRBNm8EwPDsmT8c0XDBb16uQaunXsFNuDlA0zA+QcG3rsFt9oJBh6+TwOHYUcDBHKZAHW7mPjU0w8AAmk1A
lpc_rms=-20.89
offset=105600
pitch_keycenter=f4
sample=Alto_fall_MF_F4.opus
</region>

<region>
hikey=f5
hivel=127
lokey=e5
lovel=1
lpc=r2wfQozJbcLjL1RBin7ZwO+C8UEDz5fBPLUyQb6j+cAXlCPAcRfFP5vx+kAYBEzBg6sZQU47vMAc0YA/ji8IQVuSwz9G7qDAEUDav6gu4cCTuxk/GI0DQYThmEAeVtnA
lpc_rms=-17.38
offset=105600
pitch_keycenter=f5
sample=Alto_fall_MF_F5.opus
</region>

<region>
hivel=127
key=g3
lovel=1
lpc=J/wOQgmAqMKerohC90IOwuy5/EFHab/BJn6RQdq6L8FONTrBUkTCQUNhd8EyIo1A856FQHwzCcHBzoC+TCIKQd2WfsCQfp+/wCgCQKZMwr98fWbA3OO3QJJxr7+iu/u+
lpc_rms=-28.52
offset=105600
sample=Alto_fall_MF_G3.opus
</region>

<region>
hikey=g4
hivel=127
lokey=f#4
lovel=1
lpc=RBY+QgYD3sJAS6tC8/4bwjNuMULpNiXCgLXFQQObacEh/gDBgkzgQQvck8GYJu49yFaoQNeKE8EOJNlAAfFPQIhjwMDVL39AmY2XPvmQlD8RA9bA2jM9Qe15d8FEtf9A
lpc_rms=-22.38
offset=105600
pitch_keycenter=g4
sample=Alto_fall_MF_G4.opus
</region>

<region>
hikey=g5
hivel=127
lokey=f#5
lovel=1
lpc=/f1MQRrepMFDPedA1MEKwBERDEHyFszAmEn1P+KVUz/shanA8Q/XQIRBasBRors9/42pP3ueV78Btf09xZQuQFhcBsAN+ibA/8YJQGvSqj/+OxTAHFY3QAqWEL/PcaK/
lpc_rms=-27.01
offset=105600
pitch_keycenter=g5
sample=Alto_fall_MF_G5.opus
</region>
</group>

<group>
ampeg_attack=0.02
ampeg_release=2.5
group_label=Release_91-127
lpc_hicc1=127
lpc_locc1=85
trigger=release

<region>
hikey=a3
hivel=127
lokey=g#3
lovel=1
lpc=FUfBQdKITsIZSQ5CYfGLwVuQxUGF5LXB+HM7QfErkcABDcq++zVeQPI4vD89hRrBm/I8QS1r/8AsbNs/cGy+Pzemzb9l2DtAv51VwJZJpUDw7LTAjlBpP6uNwz8BwWW+
lpc_rms=-24.23
offset=105600
pitch_keycenter=a3
sample=Alto_fall_FF_A3.opus
</region>

<region>
hikey=a4
hivel=127
lokey=g#4
lovel=1
lpc=Gq+bQXijJsIu1t5B9egewRQOXkEjhnXBQToGQWSprcC9efVA/OmcwDrJg0Atwy/BKsNOQfoeG8EEbspA3cEnv+cWgMCyodo/IGiCQIKdWL8Nn43AC9DxP0Ffa79wG7E/
lpc_rms=-22.53
offset=110910
pitch_keycenter=a4
sample=Alto_fall_FF_A4.opus
</region>

<region>
hikey=a5
hivel=127
lokey=g#5
lovel=1
lpc=eT6DQTiu1MESFxxBQTd6PyOoMEBWyxfAbd0vP407j7+aZkNATmG/v5GcjT+QvdHAj5MCQeWsc8DbJ1g/WLRJPyesCMBd101Ak8VQPxywX8DWzyg/AhTxPq29wzzMiMy+
lpc_rms=-17.75
offset=104002
pitch_keycenter=a5
sample=Alto_fall_FF_A5.opus
</region>

<region>
hikey=b3
hivel=127
lokey=a#3
lovel=1
lpc=D+bvQSbdh8KiYEFCftqjwdQN7UFo7evBYGqTQethhsGpNWZBrw/7wD0ZAEGZy4PBwzGiQW2QasH3VtFAqCWJPyl1RMCGjDK/ooWvP3tGRUCIzsLATe+sQO+wd8DqDu0/
lpc_rms=-24.20
offset=105600
pitch_keycenter=b3
sample=Alto_fall_FF_B3.opus
</region>

<region>
hikey=b4
hivel=127
lokey=a#4
lovel=1
lpc=VhrfQfOea8J2OA9CLIxXwRcm0kEi+LnBAYFjQY3OUsE25sY/F5wHQfwMusD5aMa/sb4/QCPWjD8G5yjArswBQX6iK8FQL4pAMWisv2FNU0DPe/LAqik6QUmUE8GZsFxA
lpc_rms=-18.80
offset=105600
pitch_keycenter=b4
sample=Alto_fall_FF_B4.opus
</region>

<region>
hikey=b5
hivel=127
lokey=a#5
lovel=1
lpc=plNiQXIFtMHDNCRBRiSNwHIqw0DLID7A8aENQHtAH8AN/3i/Y+SHQGIuw7/8yRPAnCp6QAFMJsCLR1g/4bbgPw2YhMCc7DVAjMDdPxXfW7+VnELAcvdsQGdjtMCtYYFA
lpc_rms=-19.70
offset=105600
pitch_keycenter=b5
sample=Alto_fall_FF_B5.opus
</region>

<region>
hikey=c#4
hivel=127
lokey=c4
lovel=1
lpc=mb+8QdPqS8J5PvFBS3KzwB27hEG/SKfB7U5IQT4xQsHgsExBfSzJwIFkgUBVozvBCaJrQWw9GsGbK3dAbvKIPyzSKMBSy4I/3M5iP7CL5D7AoAvAWcGKPzrxv78gjac/
lpc_rms=-23.52
offset=105600
pitch_keycenter=c#4
sample=Alto_fall_FF_C#4.opus
</region>

<region>
hikey=c#5
hivel=127
lokey=c5
lovel=1
lpc=VVU6QVgXnsFP9fxAM2eBwHpXDUHQHabAjmmZQJ2hfcBnfbm/glMvQK2Zjr/wMHw+OlBNPwz57r+RGsW+MfwfQNbE9b+HWhZAOiGiv2KQ1z/KCUrAaIYqQKK3W8A8wR5A
lpc_rms=-26.28
offset=105600
pitch_keycenter=c#5
sample=Alto_fall_FF_C#5.opus
</region>

<region>
hikey=c#6
hivel=127
lokey=c6
lovel=1
lpc=nHF2QbXXlsHbb50/rx7tP+gLfECpvvu/S8V0PxO4s746tTLAedLCQEcvrL4SVo3AwAeFQNqHQr4xOZnAmy6+QJzrR7t/mAHAQ36QP5Rf6z85FK3AYXMDv4RzkEB/j0Y+
lpc_rms=-15.97
offset=105600
pitch_keycenter=C#6
sample=Alto_fall_FF_C#6.opus
</region>

<region>
hikey=d#4
hivel=127
lokey=d4
lovel=1
lpc=2RLAQaRlVMI7QQVCnLD1wCyBj0G/1aLBJAnmQNo6rb9tB9A/idz2v/bxIkB0rOXAJL88QRKYFsF5mUBA0M5yQJZ56MD5cqZAFySsv3fIEz8nGLy/A0mSP0Jjjr9FKV4/
lpc_rms=-22.23
offset=106322
pitch_keycenter=d#4
sample=Alto_fall_FF_D#4.opus
</region>

<region>
hikey=d#5
hivel=127
lokey=d5
lovel=1
lpc=NK2HQXAM4MEsuRdBZbQavi+dAUFgrqHAIpaRP45JTMAlGdo/fdMxQJIcTT+gV+jA+FHgQEQmi8D0qrA+Kx2lQA3mnMCZvq8/ivEuQLjv8T3NZhTATf4awAnekT/u1BJA
lpc_rms=-21.51
offset=105600
pitch_keycenter=d#5
sample=Alto_fall_FF_D#5.opus
</region>

<region>
hikey=f4
hivel=127
lokey=e4
lovel=1
lpc=TKILQriLkMIy0CpC0L+JwerEGEK5lB/CT3ntQSSw48HqZoVBwWYCwZedYUHIhp7Bn2mYQYW6Z8E90t9AIey9QLHxRcFsR7JAGDOjP36SVUDuhyDBPvkOQZFwicC6RWM/
lpc_rms=-16.92
offset=105600
pitch_keycenter=f4
sample=Alto_fall_FF_F4.opus
</region>

<region>
hikey=f5
hivel=127
lokey=e5
lovel=1
lpc=H7IWQkJ8iMLfI/NBAepawAHKl0EpsFzB7EgeQGLkvcAPLdNApR6yP8nIiL7kjkrBNT2DQX6Z0sB8/VY/ajwCQHfZgcBMVI1ALU6UP+m0zsBy4BRAomHHP6jek0DcsHPA
lpc_rms=-13.27
offset=105600
pitch_keycenter=f5
sample=Alto_fall_FF_F5.opus
</region>

<region>
hivel=127
key=g3
lovel=1
lpc=hjDVQb8vecJ4DE1C6z7wwaF86EHzjabBaj0sQZnAEr923ynBtmREQff7xsCEpCHARvMKQZSpHcEKkcBA/8DOv/kOXj/yoG+/X8z5Pon+oT8DDXrAmL2WQDA5NMAZZTE/
lpc_rms=-24.41
offset=105600
sample=Alto_fall_FF_G3.opus
</region>

<region>
hikey=g4
hivel=127
lokey=f#4
lovel=1
lpc=K/SkQfQcOcKEMgNCwO1DwRF5jEEMRqHBsLqBQeYEgsFUgilBMKMVwBsNgEDpwD3BedVpQUSmN8EKutlANLeIP9wNmsA/RaS/PcI0QFe2Qz9KSLi/4RShQJTA4MBMwkBA
lpc_rms=-22.20
offset=112937
pitch_keycenter=g4
sample=Alto_fall_FF_G4.opus
</region>

<region>
hikey=g5
hivel=127
lokey=f#5
lovel=1
lpc=WUJdQS73usGlZxRBAf88PhjDpEDLyaPArpcvQAqPP8BJgh1A8twAwJ0ig0DfacHAD17BQHpdg8BKaWw/3d02QF1tO8ByuPG+CApTQCYgQ8DSDvY/xKnMvw/eZEDpPi7A
lpc_rms=-19.58
offset=105600
pitch_keycenter=g5
sample=Alto_fall_FF_G5.opus
</region>
</group>